<svg width="46" height="18" viewBox="0 0 46 18" fill="none" xmlns="http://www.w3.org/2000/svg">
<path fill-rule="evenodd" clip-rule="evenodd" d="M0.0385222 7.21586C0 7.60699 0 8.07132 0 9C0 9.92868 0 10.393 0.0385222 10.7841C0.412614 14.5824 3.41765 17.5874 7.21586 17.9615C7.60699 18 8.07132 18 9 18H37C37.9287 18 38.393 18 38.7841 17.9615C42.5824 17.5874 45.5874 14.5824 45.9615 10.7841C46 10.393 46 9.92868 46 9C46 8.07132 46 7.60699 45.9615 7.21586C45.5874 3.41765 42.5824 0.412614 38.7841 0.0385222C38.393 0 37.9287 0 37 0H9C8.07132 0 7.60699 0 7.21586 0.0385222C3.41765 0.412614 0.412614 3.41765 0.0385222 7.21586ZM23 13C25.2091 13 27 11.2091 27 9C27 6.79086 25.2091 5 23 5C20.7909 5 19 6.79086 19 9C19 11.2091 20.7909 13 23 13ZM14 9C14 11.2091 12.2091 13 10 13C7.79086 13 6 11.2091 6 9C6 6.79086 7.79086 5 10 5C12.2091 5 14 6.79086 14 9ZM36 13C38.2091 13 40 11.2091 40 9C40 6.79086 38.2091 5 36 5C33.7909 5 32 6.79086 32 9C32 11.2091 33.7909 13 36 13Z" fill="#292B37"/>
</svg>
